<svg width="48" height="14" viewBox="0 0 48 14" fill="none" xmlns="http://www.w3.org/2000/svg">
<path d="M0 13.1102H13V0.110195H0V13.1102ZM18.46 12.3562C17.1427 12.3562 16.0507 11.8925 15.184 10.9652C14.326 10.0292 13.897 8.90253 13.897 7.5852C13.897 6.24186 14.3303 5.11086 15.197 4.19219C16.0637 3.27353 17.1513 2.81419 18.46 2.81419C19.4393 2.81419 20.3277 3.06553 21.125 3.56819C21.9223 4.07086 22.451 4.77286 22.711 5.67419H21.398C21.1553 5.14553 20.7567 4.73386 20.202 4.4392C19.656 4.14453 19.0753 3.99719 18.46 3.99719C17.4807 3.99719 16.692 4.34819 16.094 5.0502C15.5047 5.7522 15.21 6.5972 15.21 7.5852C15.21 8.58186 15.509 9.4312 16.107 10.1332C16.705 10.8265 17.4893 11.1732 18.46 11.1732C19.8207 11.1732 20.8087 10.6099 21.424 9.4832H22.711C22.5637 10.0639 22.269 10.5795 21.827 11.0302C21.385 11.4722 20.8693 11.8102 20.28 12.0442C19.7687 12.2522 19.162 12.3562 18.46 12.3562ZM24.9417 12.2002V2.97019H32.1697V4.1402H26.1897V6.7142H29.7647V7.8842H26.1897V11.0302H32.6897V12.2002H24.9417ZM34.692 12.2002V2.97019H35.953V12.2002H34.692ZM47.1504 2.97019V12.2652H46.2534L40.0394 4.4522V12.2002H38.8304V2.97019H40.3644L45.9414 10.0422V2.97019H47.1504Z" fill="#565656"/>
</svg>
